<svg xmlns="http://www.w3.org/2000/svg" xmlns:xlink="http://www.w3.org/1999/xlink" viewBox="0 0 20.17 20.58"><defs><style>.cls-1{fill:none;}.cls-2{fill:#4285f4;}.cls-3{clip-path:url(#clip-path);}.cls-4{fill:#34a853;}.cls-5{fill:#fbbc05;}.cls-6{fill:#eb4335;}</style><clipPath id="clip-path" transform="translate(0 0)"><rect class="cls-1" width="20.18" height="20.6"/></clipPath></defs><title>Asset 1</title><g id="Layer_2" data-name="Layer 2"><g id="Layer_1-2" data-name="Layer 1"><path class="cls-2" d="M20.17,10.52A8.74,8.74,0,0,0,20,8.42H10.29v3.82H16a5,5,0,0,1-2.1,3.34l0,.13,3.05,2.36.22,0a10.05,10.05,0,0,0,3.06-7.57" transform="translate(0 0)"/><g class="cls-3"><path class="cls-4" d="M10.29,20.59a9.83,9.83,0,0,0,6.82-2.5l-3.25-2.51a6.15,6.15,0,0,1-3.57,1,6.19,6.19,0,0,1-5.85-4.28H4.31L1.14,14.8l0,.11a10.26,10.26,0,0,0,9.19,5.68" transform="translate(0 0)"/><path class="cls-5" d="M4.44,12.33a6.29,6.29,0,0,1-.35-2,6.85,6.85,0,0,1,.33-2V8.12L1.2,5.63l-.1,0a10.23,10.23,0,0,0,0,9.23l3.34-2.58" transform="translate(0 0)"/></g><path class="cls-6" d="M10.29,4a5.69,5.69,0,0,1,4,1.54l2.9-2.84A9.86,9.86,0,0,0,10.29,0,10.26,10.26,0,0,0,1.1,5.68L4.42,8.26A6.24,6.24,0,0,1,10.29,4" transform="translate(0 0)"/></g></g></svg>